<svg width="20" height="20" viewBox="0 0 20 20" fill="none" xmlns="http://www.w3.org/2000/svg">
<path d="M9.99996 8.49211V11.6679M9.99996 8.49211C10.2331 8.49211 10.4637 8.5408 10.6767 8.63545L17.5 11.6679C17.5132 13.4264 17.0464 15.1551 16.15 16.6679M9.99996 8.49211C9.76685 8.49211 9.53639 8.5408 9.32335 8.63545L2.50002 11.6679C2.46144 14.0377 3.29478 16.339 4.84169 18.1346M9.99996 1.66797V4.16797M15.8333 10.8346V5.83464C15.8333 5.39261 15.6577 4.96868 15.3451 4.65612C15.0326 4.34356 14.6087 4.16797 14.1666 4.16797H5.83329C5.39127 4.16797 4.96734 4.34356 4.65478 4.65612C4.34222 4.96868 4.16663 5.39261 4.16663 5.83464V10.8346M1.66663 17.5013C2.16663 17.918 2.66663 18.3346 3.74996 18.3346C5.83329 18.3346 5.83329 16.668 7.91663 16.668C8.99996 16.668 9.49996 17.0846 9.99996 17.5013C10.5 17.918 11 18.3346 12.0833 18.3346C14.1666 18.3346 14.1666 16.668 16.25 16.668C17.3333 16.668 17.8333 17.0846 18.3333 17.5013" stroke="black" stroke-opacity="0.5" stroke-width="2" stroke-linecap="round" stroke-linejoin="round"/>
</svg>
