<svg width="20" height="20" viewBox="0 0 20 20" fill="none" xmlns="http://www.w3.org/2000/svg">
<g clip-path="url(#clip0_219_9124)">
<path d="M10 8.49211V11.6679M10 8.49211C10.2331 8.49211 10.4637 8.5408 10.6767 8.63545L17.5001 11.6679C17.5132 13.4264 17.0465 15.1551 16.1501 16.6679M10 8.49211C9.76691 8.49211 9.53645 8.5408 9.32342 8.63545L2.50008 11.6679C2.4615 14.0377 3.29485 16.339 4.84175 18.1346M10 1.66797V4.16797M15.8334 10.8346V5.83464C15.8334 5.39261 15.6578 4.96868 15.3452 4.65612C15.0326 4.34356 14.6087 4.16797 14.1667 4.16797H5.83335C5.39133 4.16797 4.9674 4.34356 4.65484 4.65612C4.34228 4.96868 4.16669 5.39261 4.16669 5.83464V10.8346M1.66669 17.5013C2.16669 17.918 2.66669 18.3346 3.75002 18.3346C5.83335 18.3346 5.83335 16.668 7.91669 16.668C9.00002 16.668 9.50002 17.0846 10 17.5013C10.5 17.918 11 18.3346 12.0834 18.3346C14.1667 18.3346 14.1667 16.668 16.25 16.668C17.3334 16.668 17.8334 17.0846 18.3334 17.5013" stroke="black" stroke-opacity="0.5" stroke-width="2" stroke-linecap="round" stroke-linejoin="round"/>
</g>
<defs>
<clipPath id="clip0_219_9124">
<rect width="20" height="20" fill="white"/>
</clipPath>
</defs>
</svg>
